<?xml version="1.0" encoding="iso-8859-1"?>
<!-- Generator: Adobe Illustrator 16.0.0, SVG Export Plug-In . SVG Version: 6.00 Build 0)  -->
<!DOCTYPE svg PUBLIC "-//W3C//DTD SVG 1.1//EN" "http://www.w3.org/Graphics/SVG/1.1/DTD/svg11.dtd">
<svg xmlns="http://www.w3.org/2000/svg" xmlns:xlink="http://www.w3.org/1999/xlink" version="1.1" id="Capa_1" x="0px" y="0px" width="512px" height="512px" viewBox="0 0 32.68 32.68" style="enable-background:new 0 0 32.68 32.68;" xml:space="preserve">
<g>
	<path d="M7.679,16.34l-3.84,5.226L0,16.34h2.339c0-7.72,6.281-14.001,14.001-14.001v3c-6.066,0-11.001,4.935-11.001,11.001H7.679z    M28.841,11.116l-3.84,5.225h2.34c0,6.064-4.935,11-11.001,11v3c7.721,0,14.001-6.279,14.001-14h2.339L28.841,11.116z    M21.574,7.247l-0.129,0.004c-0.526,0-0.789,0.208-0.789,0.625c0,0.437,0.262,0.654,0.785,0.654c0.006,0,0.049,0.002,0.133,0.007   V7.247z M16.331,8.823c0-3.038,2.462-5.5,5.5-5.5s5.5,2.462,5.5,5.5c0,3.037-2.462,5.5-5.5,5.5S16.331,11.86,16.331,8.823z    M19.701,10.05c0,0.531,0.127,0.904,0.383,1.119c0.254,0.214,0.695,0.321,1.32,0.321l0.168,0.004v0.589h0.601v-0.589l0.183-0.004   c0.629,0,1.069-0.112,1.322-0.336c0.252-0.225,0.378-0.614,0.378-1.17c0-0.517-0.116-0.872-0.347-1.065   c-0.232-0.194-0.678-0.31-1.338-0.346l-0.197-0.008V7.25h0.139c0.488,0,0.731,0.194,0.731,0.585l0.003,0.095h0.859V7.809   c0-0.517-0.123-0.87-0.367-1.06c-0.245-0.19-0.7-0.285-1.365-0.285V5.952h-0.6v0.512c-0.697,0-1.174,0.1-1.433,0.298   c-0.257,0.198-0.386,0.567-0.386,1.105c0,0.556,0.128,0.935,0.384,1.138c0.257,0.202,0.733,0.303,1.435,0.303v1.426l-0.133-0.003   c-0.357,0-0.588-0.047-0.691-0.142c-0.104-0.094-0.156-0.303-0.156-0.627V9.871h-0.888L19.701,10.05z M23.156,10   c0-0.269-0.062-0.444-0.189-0.53c-0.127-0.085-0.393-0.128-0.793-0.128v1.393h0.127C22.872,10.734,23.156,10.489,23.156,10z    M17.247,22.571c0,3.037-2.462,5.5-5.5,5.5c-3.038,0-5.5-2.463-5.5-5.5s2.462-5.5,5.5-5.5   C14.785,17.071,17.247,19.534,17.247,22.571z M14.006,23.341h-1.02l0.007,0.239c0.011,0.348-0.063,0.577-0.223,0.688   c-0.149,0.104-0.478,0.156-0.985,0.156c-0.57,0-0.911-0.094-1.023-0.281c-0.057-0.098-0.101-0.291-0.129-0.58h1.538l0.097-0.66   h-1.67c-0.005-0.189-0.008-0.385-0.008-0.58v-0.077h1.777l0.098-0.659h-1.847c0.029-0.327,0.084-0.538,0.165-0.635   c0.128-0.154,0.48-0.231,1.055-0.231c0.429,0,0.705,0.034,0.828,0.103c0.182,0.104,0.274,0.342,0.274,0.719v0.138h1.02   l-0.004-0.122c-0.023-0.699-0.151-1.154-0.385-1.365c-0.253-0.228-0.763-0.34-1.529-0.34c-0.999,0-1.662,0.139-1.989,0.415   c-0.272,0.23-0.432,0.671-0.478,1.321H9.237l-0.098,0.659h0.419c0.003,0.243,0.008,0.463,0.016,0.659H9.236l-0.098,0.658H9.62   c0.06,0.608,0.161,1.016,0.302,1.215c0.243,0.347,0.867,0.52,1.871,0.52c0.861,0,1.421-0.085,1.684-0.255   c0.352-0.228,0.529-0.733,0.529-1.519V23.341z" fill="#91DC5A"/>
</g>
<g>
</g>
<g>
</g>
<g>
</g>
<g>
</g>
<g>
</g>
<g>
</g>
<g>
</g>
<g>
</g>
<g>
</g>
<g>
</g>
<g>
</g>
<g>
</g>
<g>
</g>
<g>
</g>
<g>
</g>
</svg>
